:FULLY-SPECIFIED
:FORCE-ALL-JOINTS-BE-3DOF
:DEGREES
3160
root 0.958732 16.9265 -33.3642 1086.06 5.2346 -3.7578
lfemur -18.6356 -2.4736 -8.23273
ltibia 35.268 0 0
lfoot -16.3889 7.65369 0
ltoes -40.68 0 0
rfemur -19.4075 -0.204834 18.4946
rtibia 39.003 0 0
rfoot -12.152 -21.0716 0
rtoes -16.3993 0 0
lowerback 5.78153 1.52251 -0.52988
upperback -4.08316 2.12701 1.8518
thorax -7.6208 1.12963 1.98013
lowerneck -5.41347 -5.15208 -7.89203
upperneck 9.34595 -6.80649 5.98537
head 4.14771 -3.34584 2.73047
lclavicle 7.68214e-16 -2.84711e-15 0
lhumerus -33.4607 -18.3995 94.8272
lradius 51.5803 0 0
lwrist -8.92129 0 0
lhand -34.101 389.386 0
lfingers 7.12502 0 0
lthumb -7.27701 -660.76 0
rclavicle 7.68214e-16 -2.84711e-15 0
rhumerus -35.5506 14.0753 -81.3744
rradius 50.5386 0 0
rwrist 1.70475 0 0
rhand -29.32 -394.153 0
rfingers 7.12502 0 0
rthumb -2.66071 295.885 0
3161
root 0.966752 16.9298 -33.3614 1086.05 5.19226 -3.78715
lfemur -18.5797 -2.4963 -8.23518
ltibia 35.2244 0 0
lfoot -16.3715 7.71668 0
ltoes -40.6662 0 0
rfemur -19.3431 -0.174021 18.495
rtibia 38.8964 0 0
rfoot -12.1166 -21.0462 0
rtoes -16.3958 0 0
lowerback 5.7542 1.52909 -0.538289
upperback -4.09882 2.13507 1.85141
thorax -7.62233 1.13415 1.98382
lowerneck -5.45122 -5.15023 -7.88516
upperneck 9.42981 -6.8046 5.985
head 4.1766 -3.34424 2.72418
lclavicle 7.35086e-16 -3.09772e-15 0
lhumerus -33.4847 -18.2134 94.7559
lradius 51.2832 0 0
lwrist -9.02274 0 0
lhand -34.1301 389.343 0
lfingers 7.12502 0 0
lthumb -7.3051 -660.803 0
rclavicle 7.35086e-16 -3.09772e-15 0
rhumerus -35.5567 13.8549 -81.3377
rradius 50.0633 0 0
rwrist 1.87599 0 0
rhand -29.3099 -394.172 0
rfingers 7.12502 0 0
rthumb -2.65098 295.865 0
3162
root 0.974814 16.9331 -33.3586 1086.05 5.1488 -3.81661
lfemur -18.523 -2.51866 -8.23779
ltibia 35.1804 0 0
lfoot -16.354 7.78034 0
ltoes -40.6517 0 0
rfemur -19.2786 -0.142908 18.4954
rtibia 38.7891 0 0
rfoot -12.081 -21.0202 0
rtoes -16.3921 0 0
lowerback 5.72671 1.53583 -0.546762
upperback -4.11475 2.14334 1.85106
thorax -7.62407 1.13878 1.98757
lowerneck -5.48907 -5.14805 -7.87812
upperneck 9.51439 -6.80231 5.98457
head 4.20572 -3.34244 2.71791
lclavicle 6.813e-16 -3.34335e-15 0
lhumerus -33.5069 -18.0245 94.6837
lradius 50.9781 0 0
lwrist -9.12749 0 0
lhand -34.159 389.302 0
lfingers 7.12502 0 0
lthumb -7.33302 -660.846 0
rclavicle 6.813e-16 -3.34335e-15 0
rhumerus -35.5623 13.6308 -81.3002
rradius 49.5817 0 0
rwrist 2.0471 0 0
rhand -29.2979 -394.19 0
rfingers 7.12502 0 0
rthumb -2.63938 295.847 0
3163
root 0.982898 16.9364 -33.3557 1086.04 5.10426 -3.84612
lfemur -18.4658 -2.54061 -8.24057
ltibia 35.1359 0 0
lfoot -16.3365 7.84456 0
ltoes -40.6364 0 0
rfemur -19.2141 -0.111573 18.4957
rtibia 38.6814 0 0
rfoot -12.0455 -20.9937 0
rtoes -16.3881 0 0
lowerback 5.69914 1.54272 -0.555278
upperback -4.1309 2.15182 1.85075
thorax -7.62602 1.14352 1.99137
lowerneck -5.52691 -5.14553 -7.87094
upperneck 9.5995 -6.7996 5.98407
head 4.235 -3.34043 2.71167
lclavicle 6.07021e-16 -3.5828e-15 0
lhumerus -33.5271 -17.8331 94.6106
lradius 50.665 0 0
lwrist -9.23555 0 0
lhand -34.1876 389.262 0
lfingers 7.12502 0 0
lthumb -7.3607 -660.886 0
rclavicle 6.07021e-16 -3.5828e-15 0
rhumerus -35.5675 13.4032 -81.2619
rradius 49.0946 0 0
rwrist 2.21757 0 0
rhand -29.2837 -394.208 0
rfingers 7.12502 0 0
rthumb -2.62566 295.829 0
3164
root 0.990984 16.9397 -33.3528 1086.04 5.05866 -3.8756
lfemur -18.4081 -2.56203 -8.24352
ltibia 35.0913 0 0
lfoot -16.3191 7.90923 0
ltoes -40.6205 0 0
rfemur -19.1499 -0.0800905 18.496
rtibia 38.5737 0 0
rfoot -12.0102 -20.9668 0
rtoes -16.3839 0 0
lowerback 5.67156 1.54975 -0.563815
upperback -4.14727 2.16049 1.85049
thorax -7.62821 1.14836 1.99521
lowerneck -5.56466 -5.14267 -7.86361
upperneck 9.68498 -6.79646 5.98351
head 4.26438 -3.33821 2.70549
lclavicle 5.12414e-16 -3.81485e-15 0
lhumerus -33.545 -17.6393 94.5368
lradius 50.3442 0 0
lwrist -9.34694 0 0
lhand -34.2159 389.223 0
lfingers 7.12502 0 0
lthumb -7.38802 -660.926 0
rclavicle 5.12414e-16 -3.81485e-15 0
rhumerus -35.5722 13.1727 -81.2229
rradius 48.603 0 0
rwrist 2.38685 0 0
rhand -29.267 -394.224 0
rfingers 7.12502 0 0
rthumb -2.60955 295.813 0
3165
root 0.999054 16.943 -33.3498 1086.03 5.01201 -3.90498
lfemur -18.35 -2.58285 -8.24665
ltibia 35.0465 0 0
lfoot -16.3017 7.97424 0
ltoes -40.6038 0 0
rfemur -19.0859 -0.0485386 18.4962
rtibia 38.4662 0 0
rfoot -11.975 -20.9395 0
rtoes -16.3795 0 0
lowerback 5.64406 1.55691 -0.57235
upperback -4.16381 2.16936 1.85028
thorax -7.63065 1.15331 1.99907
lowerneck -5.6022 -5.13943 -7.85614
upperneck 9.77064 -6.79286 5.98287
head 4.29381 -3.33576 2.69938
lclavicle 3.9764e-16 -4.0383e-15 0
lhumerus -33.5605 -17.4434 94.4623
lradius 50.0158 0 0
lwrist -9.46169 0 0
lhand -34.2438 389.187 0
lfingers 7.12502 0 0
lthumb -7.41489 -660.963 0
rclavicle 3.9764e-16 -4.0383e-15 0
rhumerus -35.5764 12.9396 -81.1832
rradius 48.1078 0 0
rwrist 2.55443 0 0
rhand -29.2476 -394.239 0
rfingers 7.12502 0 0
rthumb -2.59082 295.798 0
3166
root 1.00709 16.9463 -33.3468 1086.03 4.96434 -3.93418
lfemur -18.2916 -2.60296 -8.24996
ltibia 35.0016 0 0
lfoot -16.2845 8.03948 0
ltoes -40.5863 0 0
rfemur -19.0225 -0.0169938 18.4964
rtibia 38.3592 0 0
rfoot -11.9402 -20.9118 0
rtoes -16.375 0 0
lowerback 5.61671 1.5642 -0.580864
upperback -4.1805 2.17841 1.85012
thorax -7.63334 1.15834 2.00296
lowerneck -5.63943 -5.13581 -7.84853
upperneck 9.85631 -6.78879 5.98217
head 4.32322 -3.33307 2.69337
lclavicle 2.62866e-16 -4.25196e-15 0
lhumerus -33.5733 -17.2456 94.3872
lradius 49.68 0 0
lwrist -9.5798 0 0
lhand -34.271 389.152 0
lfingers 7.12502 0 0
lthumb -7.44121 -660.999 0
rclavicle 2.62866e-16 -4.25196e-15 0
rhumerus -35.5801 12.7043 -81.143
rradius 47.6101 0 0
rwrist 2.71977 0 0
rhand -29.2252 -394.253 0
rfingers 7.12502 0 0
rthumb -2.56921 295.784 0
3167
root 1.01506 16.9495 -33.3437 1086.02 4.91568 -3.96313
lfemur -18.233 -2.62226 -8.25346
ltibia 34.9569 0 0
lfoot -16.2674 8.10484 0
ltoes -40.5682 0 0
rfemur -18.9598 0.0144672 18.4965
rtibia 38.253 0 0
rfoot -11.9059 -20.8837 0
rtoes -16.3702 0 0
lowerback 5.58959 1.57161 -0.589334
upperback -4.19731 2.18764 1.85003
thorax -7.63632 1.16347 2.00686
lowerneck -5.67627 -5.1318 -7.8408
upperneck 9.94181 -6.78422 5.9814
head 4.35254 -3.33015 2.68746
lclavicle 1.08254e-16 -4.45463e-15 0
lhumerus -33.5832 -17.0463 94.3116
lradius 49.3369 0 0
lwrist -9.70131 0 0
lhand -34.2976 389.119 0
lfingers 7.12502 0 0
lthumb -7.46688 -661.032 0
rclavicle 1.08254e-16 -4.45463e-15 0
rhumerus -35.5831 12.4672 -81.1023
rradius 47.1106 0 0
rwrist 2.88234 0 0
rhand -29.1996 -394.265 0
rfingers 7.12502 0 0
rthumb -2.54448 295.772 0
3168
root 1.02296 16.9528 -33.3406 1086.02 4.86605 -3.99175
lfemur -18.1742 -2.64067 -8.25716
ltibia 34.9123 0 0
lfoot -16.2507 8.1702 0
ltoes -40.5492 0 0
rfemur -18.8979 0.0457678 18.4966
rtibia 38.1479 0 0
rfoot -11.8722 -20.8552 0
rtoes -16.3653 0 0
lowerback 5.56279 1.57914 -0.597739
upperback -4.21421 2.19705 1.85
thorax -7.63958 1.16868 2.01077
lowerneck -5.7126 -5.12737 -7.83295
upperneck 10.027 -6.77915 5.98056
head 4.38172 -3.32698 2.68169
lclavicle -6.60306e-17 -4.64509e-15 0
lhumerus -33.59 -16.8457 94.2355
lradius 48.9866 0 0
lwrist -9.82622 0 0
lhand -34.3235 389.089 0
lfingers 7.12502 0 0
lthumb -7.49182 -661.063 0
rclavicle -6.60306e-17 -4.64509e-15 0
rhumerus -35.5856 12.2286 -81.0611
rradius 46.6104 0 0
rwrist 3.04163 0 0
rhand -29.1705 -394.275 0
rfingers 7.12502 0 0
rthumb -2.51637 295.761 0
3169
root 1.03076 16.9559 -33.3374 1086.02 4.81547 -4.01998
lfemur -18.1154 -2.65809 -8.26106
ltibia 34.8681 0 0
lfoot -16.2342 8.23546 0
ltoes -40.5296 0 0
rfemur -18.837 0.0768312 18.4966
rtibia 38.0441 0 0
rfoot -11.8391 -20.8265 0
rtoes -16.3603 0 0
lowerback 5.53638 1.58677 -0.606056
upperback -4.23117 2.20662 1.85003
thorax -7.64315 1.17398 2.01467
lowerneck -5.74833 -5.12252 -7.82497
upperneck 10.1116 -6.77355 5.97966
head 4.41069 -3.32355 2.67607
lclavicle -2.59825e-16 -4.82214e-15 0
lhumerus -33.5935 -16.644 94.1592
lradius 48.6293 0 0
lwrist -9.95456 0 0
lhand -34.3484 389.061 0
lfingers 7.12502 0 0
lthumb -7.51591 -661.091 0
rclavicle -2.59825e-16 -4.82214e-15 0
rhumerus -35.5874 11.9891 -81.0196
rradius 46.1103 0 0
rwrist 3.19709 0 0
rhand -29.1377 -394.285 0
rfingers 7.12502 0 0
rthumb -2.48464 295.751 0
3170
root 1.03845 16.9591 -33.3342 1086.01 4.76396 -4.04773
lfemur -18.0566 -2.67442 -8.26516
ltibia 34.8243 0 0
lfoot -16.2181 8.30049 0
ltoes -40.5091 0 0
rfemur -18.7773 0.107581 18.4965
rtibia 37.9419 0 0
rfoot -11.8068 -20.7974 0
rtoes -16.3552 0 0
lowerback 5.51044 1.59451 -0.614266
upperback -4.24817 2.21635 1.85014
thorax -7.64704 1.17936 2.01856
lowerneck -5.78336 -5.11722 -7.81689
upperneck 10.1955 -6.7674 5.97868
head 4.43939 -3.31985 2.67062
lclavicle -4.72965e-16 -4.9846e-15 0
lhumerus -33.5935 -16.4414 94.0827
lradius 48.2652 0 0
lwrist -10.0863 0 0
lhand -34.3724 389.037 0
lfingers 7.12502 0 0
lthumb -7.53907 -661.117 0
rclavicle -4.72965e-16 -4.9846e-15 0
rhumerus -35.5885 11.7489 -80.9778
rradius 45.6113 0 0
rwrist 3.3482 0 0
rhand -29.1008 -394.292 0
rfingers 7.12502 0 0
rthumb -2.44903 295.743 0
3171
root 1.04599 16.9621 -33.3309 1086.01 4.71155 -4.07495
lfemur -17.998 -2.68957 -8.26948
ltibia 34.781 0 0
lfoot -16.2025 8.3652 0
ltoes -40.4879 0 0
rfemur -18.719 0.13794 18.4964
rtibia 37.8417 0 0
rfoot -11.7753 -20.7681 0
rtoes -16.35 0 0
lowerback 5.48504 1.60234 -0.622345
upperback -4.26517 2.22624 1.85032
thorax -7.65126 1.1848 2.02243
lowerneck -5.81759 -5.11147 -7.80869
upperneck 10.2786 -6.76069 5.97764
head 4.46776 -3.31589 2.66536
lclavicle -7.05286e-16 -5.13124e-15 0
lhumerus -33.5897 -16.2382 94.006
lradius 47.8945 0 0
lwrist -10.2216 0 0
lhand -34.3953 389.015 0
lfingers 7.12502 0 0
lthumb -7.56118 -661.139 0
rclavicle -7.05286e-16 -5.13124e-15 0
rhumerus -35.5889 11.5085 -80.9358
rradius 45.1144 0 0
rwrist 3.49444 0 0
rhand -29.0597 -394.298 0
rfingers 7.12502 0 0
rthumb -2.40929 295.737 0
